<svg width="800" height="800" viewBox="0 0 800 800" fill="none" xmlns="http://www.w3.org/2000/svg">
<rect x="147" y="654" width="505" height="94" fill="black"/>
<path d="M178.479 716.48C176.292 716.48 174.252 716.12 172.359 715.4C170.492 714.653 168.852 713.613 167.439 712.28C166.026 710.947 164.919 709.387 164.119 707.6C163.346 705.787 162.959 703.827 162.959 701.72C162.959 699.587 163.346 697.627 164.119 695.84C164.919 694.053 166.012 692.507 167.399 691.2C168.812 689.893 170.452 688.88 172.319 688.16C174.186 687.413 176.212 687.04 178.399 687.04C180.612 687.04 182.639 687.387 184.479 688.08C186.319 688.773 187.919 689.733 189.279 690.96L183.959 696.32C183.319 695.627 182.532 695.08 181.599 694.68C180.692 694.28 179.626 694.08 178.399 694.08C177.332 694.08 176.346 694.253 175.439 694.6C174.559 694.947 173.799 695.453 173.159 696.12C172.519 696.787 172.012 697.6 171.639 698.56C171.292 699.493 171.119 700.547 171.119 701.72C171.119 702.92 171.292 704 171.639 704.96C172.012 705.893 172.519 706.693 173.159 707.36C173.799 708.027 174.559 708.547 175.439 708.92C176.346 709.267 177.332 709.44 178.399 709.44C179.599 709.44 180.666 709.253 181.599 708.88C182.559 708.507 183.386 707.96 184.079 707.24L189.439 712.6C188.026 713.827 186.439 714.787 184.679 715.48C182.919 716.147 180.852 716.48 178.479 716.48ZM205.159 716.56C202.919 716.56 200.852 716.187 198.959 715.44C197.092 714.693 195.452 713.653 194.039 712.32C192.652 710.987 191.572 709.413 190.799 707.6C190.025 705.787 189.639 703.827 189.639 701.72C189.639 699.587 190.012 697.627 190.759 695.84C191.532 694.053 192.612 692.493 193.999 691.16C195.385 689.827 197.012 688.8 198.879 688.08C200.772 687.333 202.839 686.96 205.079 686.96C207.319 686.96 209.372 687.333 211.239 688.08C213.132 688.8 214.772 689.827 216.159 691.16C217.545 692.493 218.612 694.067 219.359 695.88C220.132 697.667 220.519 699.627 220.519 701.76C220.519 703.867 220.132 705.827 219.359 707.64C218.612 709.427 217.545 711 216.159 712.36C214.772 713.693 213.145 714.733 211.279 715.48C209.412 716.2 207.372 716.56 205.159 716.56ZM205.079 709.52C206.572 709.52 207.865 709.2 208.959 708.56C210.052 707.92 210.892 707.013 211.479 705.84C212.065 704.667 212.359 703.293 212.359 701.72C212.359 700.547 212.185 699.493 211.839 698.56C211.519 697.6 211.039 696.787 210.399 696.12C209.759 695.427 208.985 694.907 208.079 694.56C207.199 694.187 206.199 694 205.079 694C203.585 694 202.292 694.32 201.199 694.96C200.105 695.573 199.265 696.467 198.679 697.64C198.092 698.787 197.799 700.147 197.799 701.72C197.799 702.92 197.959 704 198.279 704.96C198.625 705.92 199.119 706.747 199.759 707.44C200.399 708.107 201.159 708.627 202.039 709C202.945 709.347 203.959 709.52 205.079 709.52ZM223.813 716V687.52H229.613L240.213 703.04H237.693L248.253 687.52H254.053V716H246.133V700.64L247.293 700.96L241.493 709.28H236.373L230.613 700.96L231.733 700.64V716H223.813ZM258.774 716V687.52H264.574L275.174 703.04H272.654L283.214 687.52H289.014V716H281.094V700.64L282.254 700.96L276.454 709.28H271.334L265.574 700.96L266.694 700.64V716H258.774ZM293.735 716V687.52H301.735V716H293.735ZM300.215 716V709.36H315.495V716H300.215ZM300.215 704.72V698.24H314.015V704.72H300.215ZM300.215 694.16V687.52H315.255V694.16H300.215ZM319.282 716V687.52H324.882L327.282 693.52V716H319.282ZM338.882 716L322.362 695.24L324.882 687.52L341.402 708.28L338.882 716ZM338.882 716L336.882 709.68V687.52H344.882V716H338.882ZM356.394 716V687.52H364.394V716H356.394ZM347.874 694.32V687.52H372.954V694.32H347.874ZM390.031 706.2L379.191 687.52H388.391L396.591 702.76H389.711L397.911 687.52H406.911L395.991 706.2H390.031ZM389.111 716V703.28H397.111V716H389.111ZM421.973 704.64V699.12H426.813C427.906 699.12 428.733 698.853 429.293 698.32C429.879 697.787 430.173 697.08 430.173 696.2C430.173 695.32 429.879 694.613 429.293 694.08C428.733 693.547 427.906 693.28 426.813 693.28H421.973V687.52H428.093C430.066 687.52 431.799 687.88 433.293 688.6C434.786 689.32 435.959 690.32 436.813 691.6C437.666 692.88 438.093 694.373 438.093 696.08C438.093 697.787 437.653 699.28 436.773 700.56C435.919 701.84 434.719 702.84 433.173 703.56C431.626 704.28 429.799 704.64 427.693 704.64H421.973ZM415.493 716V687.52H423.493V716H415.493ZM430.853 716L423.093 703.84L430.293 702.28L439.933 716H430.853ZM441.938 716V687.52H449.938V716H441.938ZM448.418 716V709.36H463.698V716H448.418ZM448.418 704.72V698.24H462.218V704.72H448.418ZM448.418 694.16V687.52H463.458V694.16H448.418ZM449.698 685.92L447.698 682.04L455.298 676.64L458.618 682.72L449.698 685.92ZM473.965 706V700.24H479.125C479.738 700.24 480.298 700.12 480.805 699.88C481.338 699.613 481.765 699.227 482.085 698.72C482.405 698.187 482.565 697.533 482.565 696.76C482.565 695.987 482.405 695.347 482.085 694.84C481.765 694.307 481.338 693.92 480.805 693.68C480.298 693.413 479.738 693.28 479.125 693.28H473.965V687.52H480.685C482.525 687.52 484.178 687.893 485.645 688.64C487.138 689.36 488.312 690.413 489.165 691.8C490.045 693.16 490.485 694.813 490.485 696.76C490.485 698.68 490.045 700.333 489.165 701.72C488.312 703.107 487.138 704.173 485.645 704.92C484.178 705.64 482.525 706 480.685 706H473.965ZM467.485 716V687.52H475.485V716H467.485ZM507.659 716.56C505.419 716.56 503.352 716.187 501.459 715.44C499.592 714.693 497.952 713.653 496.539 712.32C495.152 710.987 494.072 709.413 493.299 707.6C492.525 705.787 492.139 703.827 492.139 701.72C492.139 699.587 492.512 697.627 493.259 695.84C494.032 694.053 495.112 692.493 496.499 691.16C497.885 689.827 499.512 688.8 501.379 688.08C503.272 687.333 505.339 686.96 507.579 686.96C509.819 686.96 511.872 687.333 513.739 688.08C515.632 688.8 517.272 689.827 518.659 691.16C520.045 692.493 521.112 694.067 521.859 695.88C522.632 697.667 523.019 699.627 523.019 701.76C523.019 703.867 522.632 705.827 521.859 707.64C521.112 709.427 520.045 711 518.659 712.36C517.272 713.693 515.645 714.733 513.779 715.48C511.912 716.2 509.872 716.56 507.659 716.56ZM507.579 709.52C509.072 709.52 510.365 709.2 511.459 708.56C512.552 707.92 513.392 707.013 513.979 705.84C514.565 704.667 514.859 703.293 514.859 701.72C514.859 700.547 514.685 699.493 514.339 698.56C514.019 697.6 513.539 696.787 512.899 696.12C512.259 695.427 511.485 694.907 510.579 694.56C509.699 694.187 508.699 694 507.579 694C506.085 694 504.792 694.32 503.699 694.96C502.605 695.573 501.765 696.467 501.179 697.64C500.592 698.787 500.299 700.147 500.299 701.72C500.299 702.92 500.459 704 500.779 704.96C501.125 705.92 501.619 706.747 502.259 707.44C502.899 708.107 503.659 708.627 504.539 709C505.445 709.347 506.459 709.52 507.579 709.52ZM526.313 716V687.52H531.913L534.313 693.52V716H526.313ZM545.913 716L529.393 695.24L531.913 687.52L548.433 708.28L545.913 716ZM545.913 716L543.913 709.68V687.52H551.913V716H545.913ZM561.986 716V709.2H568.626C570.119 709.2 571.412 708.933 572.506 708.4C573.599 707.84 574.439 707 575.026 705.88C575.612 704.76 575.906 703.373 575.906 701.72C575.906 700.067 575.599 698.693 574.986 697.6C574.399 696.507 573.559 695.693 572.466 695.16C571.399 694.6 570.119 694.32 568.626 694.32H561.586V687.52H568.626C570.866 687.52 572.919 687.853 574.786 688.52C576.679 689.187 578.319 690.147 579.706 691.4C581.092 692.653 582.159 694.16 582.906 695.92C583.679 697.653 584.066 699.6 584.066 701.76C584.066 703.92 583.679 705.88 582.906 707.64C582.159 709.373 581.092 710.867 579.706 712.12C578.319 713.373 576.692 714.333 574.826 715C572.959 715.667 570.919 716 568.706 716H561.986ZM556.626 716V687.52H564.626V716H556.626ZM593.809 704.64V699.12H598.649C599.742 699.12 600.569 698.853 601.129 698.32C601.715 697.787 602.009 697.08 602.009 696.2C602.009 695.32 601.715 694.613 601.129 694.08C600.569 693.547 599.742 693.28 598.649 693.28H593.809V687.52H599.929C601.902 687.52 603.635 687.88 605.129 688.6C606.622 689.32 607.795 690.32 608.649 691.6C609.502 692.88 609.929 694.373 609.929 696.08C609.929 697.787 609.489 699.28 608.609 700.56C607.755 701.84 606.555 702.84 605.009 703.56C603.462 704.28 601.635 704.64 599.529 704.64H593.809ZM587.329 716V687.52H595.329V716H587.329ZM602.689 716L594.929 703.84L602.129 702.28L611.769 716H602.689ZM613.774 716V687.52H621.774V716H613.774ZM620.254 716V709.36H635.534V716H620.254ZM620.254 704.72V698.24H634.054V704.72H620.254ZM620.254 694.16V687.52H635.294V694.16H620.254Z" fill="white"/>
<path d="M123.5 720L107.7 702.55C106.433 701.117 105.533 699.767 105 698.5C104.5 697.233 104.25 695.85 104.25 694.35C104.25 692.517 104.717 690.8 105.65 689.2C106.617 687.6 107.933 686.3 109.6 685.3C111.3 684.3 113.267 683.8 115.5 683.8C117.3 683.8 118.867 684.05 120.2 684.55C121.567 685.017 122.717 685.617 123.65 686.35C124.583 687.05 125.267 687.75 125.7 688.45L119.45 694.7C118.85 693.867 118.25 693.317 117.65 693.05C117.05 692.75 116.417 692.6 115.75 692.6C115.017 692.6 114.417 692.817 113.95 693.25C113.517 693.65 113.3 694.133 113.3 694.7C113.3 695.067 113.383 695.45 113.55 695.85C113.75 696.25 114.033 696.667 114.4 697.1L134.8 720H123.5ZM112.3 720.6C109.9 720.6 107.8 720.117 106 719.15C104.233 718.15 102.85 716.817 101.85 715.15C100.883 713.483 100.4 711.633 100.4 709.6C100.4 707.333 100.983 705.317 102.15 703.55C103.317 701.75 105.117 700.3 107.55 699.2L111.55 705.8C110.783 706.033 110.217 706.433 109.85 707C109.517 707.567 109.35 708.167 109.35 708.8C109.35 709.3 109.467 709.783 109.7 710.25C109.933 710.717 110.283 711.1 110.75 711.4C111.217 711.7 111.783 711.85 112.45 711.85C113.017 711.85 113.567 711.717 114.1 711.45C114.633 711.15 115.167 710.617 115.7 709.85L122.45 716.3C121.983 716.9 121.25 717.533 120.25 718.2C119.283 718.867 118.117 719.433 116.75 719.9C115.383 720.367 113.9 720.6 112.3 720.6Z" fill="white"/>
<path d="M111.475 615V602.25H123.925C126.725 602.25 129.15 601.75 131.2 600.75C133.25 599.7 134.825 598.125 135.925 596.025C137.025 593.925 137.575 591.325 137.575 588.225C137.575 585.125 137 582.55 135.85 580.5C134.75 578.45 133.175 576.925 131.125 575.925C129.125 574.875 126.725 574.35 123.925 574.35H110.725V561.6H123.925C128.125 561.6 131.975 562.225 135.475 563.475C139.025 564.725 142.1 566.525 144.7 568.875C147.3 571.225 149.3 574.05 150.7 577.35C152.15 580.6 152.875 584.25 152.875 588.3C152.875 592.35 152.15 596.025 150.7 599.325C149.3 602.575 147.3 605.375 144.7 607.725C142.1 610.075 139.05 611.875 135.55 613.125C132.05 614.375 128.225 615 124.075 615H111.475ZM101.425 615V561.6H116.425V615H101.425ZM158.993 615V561.6H173.993V615H158.993ZM171.143 615V602.55H199.793V615H171.143ZM171.143 593.85V581.7H197.018V593.85H171.143ZM171.143 574.05V561.6H199.343V574.05H171.143ZM220.37 615V561.6H235.37V615H220.37ZM232.595 615V602.25H257.57V615H232.595ZM257.464 585.825L263.314 574.875L267.364 573.75C266.914 574.6 266.389 575.325 265.789 575.925C265.189 576.475 264.514 576.75 263.764 576.75C262.064 576.75 260.489 576.05 259.039 574.65C257.639 573.2 256.939 571.4 256.939 569.25C256.939 566.95 257.714 564.975 259.264 563.325C260.814 561.675 262.764 560.85 265.114 560.85C267.314 560.85 269.214 561.675 270.814 563.325C272.464 564.925 273.289 566.9 273.289 569.25C273.289 570.2 273.114 571.3 272.764 572.55C272.414 573.8 271.689 575.425 270.589 577.425L264.064 589.425L257.464 585.825ZM279.404 615V561.6H294.404V615H279.404ZM303.28 615V561.6H313.78L318.28 572.85V615H303.28ZM340.03 615L309.055 576.075L313.78 561.6L344.755 600.525L340.03 615ZM340.03 615L336.28 603.15V561.6H351.28V615H340.03ZM356.141 615L376.466 561.6H391.766L411.866 615H396.266L381.341 569.625H386.741L371.441 615H356.141ZM369.341 606V594.3H399.191V606H369.341ZM439.983 615.9C435.883 615.9 432.058 615.225 428.508 613.875C425.008 612.475 421.933 610.525 419.283 608.025C416.633 605.525 414.558 602.6 413.058 599.25C411.608 595.85 410.883 592.175 410.883 588.225C410.883 584.225 411.608 580.55 413.058 577.2C414.558 573.85 416.608 570.95 419.208 568.5C421.858 566.05 424.933 564.15 428.433 562.8C431.933 561.4 435.733 560.7 439.833 560.7C443.983 560.7 447.783 561.35 451.233 562.65C454.683 563.95 457.683 565.75 460.233 568.05L450.258 578.1C449.058 576.8 447.583 575.775 445.833 575.025C444.133 574.275 442.133 573.9 439.833 573.9C437.833 573.9 435.983 574.225 434.283 574.875C432.633 575.525 431.208 576.475 430.008 577.725C428.808 578.975 427.858 580.5 427.158 582.3C426.508 584.05 426.183 586.025 426.183 588.225C426.183 590.475 426.508 592.5 427.158 594.3C427.858 596.05 428.808 597.55 430.008 598.8C431.208 600.05 432.633 601.025 434.283 601.725C435.983 602.375 437.833 602.7 439.833 602.7C442.083 602.7 444.083 602.35 445.833 601.65C447.633 600.95 449.183 599.925 450.483 598.575L460.533 608.625C457.883 610.925 454.908 612.725 451.608 614.025C448.308 615.275 444.433 615.9 439.983 615.9ZM477.822 615V561.6H492.822V615H477.822ZM461.847 574.35V561.6H508.872V574.35H461.847ZM514.511 615V561.6H529.511V615H514.511ZM564.788 616.05C560.588 616.05 556.713 615.35 553.163 613.95C549.663 612.55 546.588 610.6 543.938 608.1C541.338 605.6 539.313 602.65 537.863 599.25C536.413 595.85 535.688 592.175 535.688 588.225C535.688 584.225 536.388 580.55 537.788 577.2C539.238 573.85 541.263 570.925 543.863 568.425C546.463 565.925 549.513 564 553.013 562.65C556.563 561.25 560.438 560.55 564.638 560.55C568.838 560.55 572.688 561.25 576.188 562.65C579.738 564 582.813 565.925 585.413 568.425C588.013 570.925 590.013 573.875 591.413 577.275C592.863 580.625 593.588 584.3 593.588 588.3C593.588 592.25 592.863 595.925 591.413 599.325C590.013 602.675 588.013 605.625 585.413 608.175C582.813 610.675 579.763 612.625 576.263 614.025C572.763 615.375 568.938 616.05 564.788 616.05ZM564.638 602.85C567.438 602.85 569.863 602.25 571.913 601.05C573.963 599.85 575.538 598.15 576.638 595.95C577.738 593.75 578.288 591.175 578.288 588.225C578.288 586.025 577.963 584.05 577.313 582.3C576.713 580.5 575.813 578.975 574.613 577.725C573.413 576.425 571.963 575.45 570.263 574.8C568.613 574.1 566.738 573.75 564.638 573.75C561.838 573.75 559.413 574.35 557.363 575.55C555.313 576.7 553.738 578.375 552.638 580.575C551.538 582.725 550.988 585.275 550.988 588.225C550.988 590.475 551.288 592.5 551.888 594.3C552.538 596.1 553.463 597.65 554.663 598.95C555.863 600.2 557.288 601.175 558.938 601.875C560.638 602.525 562.538 602.85 564.638 602.85ZM599.765 615V561.6H610.265L614.765 572.85V615H599.765ZM636.515 615L605.54 576.075L610.265 561.6L641.24 600.525L636.515 615ZM636.515 615L632.765 603.15V561.6H647.765V615H636.515Z" fill="black"/>
<path d="M645 528.345L633.61 528.345L633.61 517.223C633.61 514.722 633.163 512.556 632.27 510.724C631.332 508.893 629.925 507.486 628.049 506.503C626.173 505.521 623.85 505.029 621.081 505.029C618.312 505.029 616.011 505.543 614.18 506.57C612.349 507.553 610.986 508.96 610.093 510.791C609.155 512.578 608.686 514.722 608.686 517.223L608.686 529.015L597.296 529.015L597.296 517.223C597.296 513.471 597.854 510.032 598.971 506.905C600.088 503.734 601.696 500.987 603.795 498.664C605.894 496.342 608.418 494.555 611.366 493.304C614.269 492.009 617.53 491.361 621.148 491.361C624.766 491.361 628.049 492.009 630.997 493.304C633.9 494.555 636.402 496.342 638.501 498.664C640.6 500.987 642.208 503.712 643.325 506.838C644.442 509.965 645 513.382 645 517.089L645 528.345ZM645 537.323L597.296 537.323L597.296 523.923L645 523.923L645 537.323ZM645 485.896L597.296 485.896L597.296 472.496L645 472.496L645 485.896ZM645.804 450.072C645.804 454.136 645.223 457.687 644.062 460.725C642.856 463.717 640.958 466.487 638.367 469.033L629.992 460.658C631.645 458.916 632.918 457.084 633.811 455.164C634.66 453.243 635.084 451.188 635.084 449C635.084 447.168 634.816 445.784 634.28 444.846C633.699 443.908 632.918 443.439 631.935 443.439C630.952 443.439 630.148 443.841 629.523 444.645C628.853 445.449 628.272 446.521 627.781 447.861C627.245 449.156 626.709 450.608 626.173 452.216C625.637 453.779 624.989 455.342 624.23 456.906C623.471 458.469 622.555 459.921 621.483 461.261C620.366 462.556 619.004 463.606 617.396 464.41C615.743 465.214 613.733 465.616 611.366 465.616C608.284 465.616 605.626 464.879 603.393 463.405C601.16 461.931 599.462 459.854 598.301 457.174C597.095 454.494 596.492 451.345 596.492 447.727C596.492 444.153 597.073 440.848 598.234 437.811C599.351 434.729 600.959 432.183 603.058 430.173L611.433 438.615C610.004 440.089 608.954 441.563 608.284 443.037C607.569 444.511 607.212 446.119 607.212 447.861C607.212 449.245 607.435 450.362 607.882 451.211C608.329 452.015 608.999 452.417 609.892 452.417C610.83 452.417 611.612 452.015 612.237 451.211C612.818 450.407 613.354 449.357 613.845 448.062C614.336 446.722 614.85 445.27 615.386 443.707C615.922 442.099 616.57 440.513 617.329 438.95C618.044 437.386 618.982 435.957 620.143 434.662C621.26 433.322 622.667 432.25 624.364 431.446C626.061 430.642 628.116 430.24 630.528 430.24C635.397 430.24 639.171 431.982 641.851 435.466C644.486 438.905 645.804 443.774 645.804 450.072ZM645.804 400.677C645.804 404.34 645.201 407.757 643.995 410.928C642.744 414.055 641.002 416.802 638.769 419.169C636.536 421.536 633.923 423.39 630.93 424.73C627.893 426.025 624.61 426.673 621.081 426.673C617.508 426.673 614.225 426.025 611.232 424.73C608.239 423.39 605.649 421.559 603.46 419.236C601.271 416.869 599.574 414.122 598.368 410.995C597.117 407.868 596.492 404.474 596.492 400.811C596.492 397.104 597.073 393.709 598.234 390.627C599.395 387.545 601.003 384.865 603.058 382.587L612.036 391.498C610.875 392.57 609.959 393.888 609.289 395.451C608.619 396.97 608.284 398.756 608.284 400.811C608.284 402.598 608.574 404.25 609.155 405.769C609.736 407.243 610.584 408.516 611.701 409.588C612.818 410.66 614.18 411.509 615.788 412.134C617.351 412.715 619.116 413.005 621.081 413.005C623.091 413.005 624.9 412.715 626.508 412.134C628.071 411.509 629.411 410.66 630.528 409.588C631.645 408.516 632.516 407.243 633.141 405.769C633.722 404.25 634.012 402.598 634.012 400.811C634.012 398.801 633.699 397.014 633.074 395.451C632.449 393.843 631.533 392.458 630.327 391.297L639.305 382.319C641.36 384.686 642.968 387.344 644.129 390.292C645.246 393.24 645.804 396.702 645.804 400.677ZM645.938 355.988C645.938 359.74 645.313 363.202 644.062 366.373C642.811 369.5 641.069 372.247 638.836 374.614C636.603 376.937 633.967 378.746 630.93 380.041C627.893 381.337 624.61 381.984 621.081 381.984C617.508 381.984 614.225 381.359 611.232 380.108C608.239 378.813 605.626 377.004 603.393 374.681C601.16 372.359 599.44 369.634 598.234 366.507C596.983 363.336 596.358 359.874 596.358 356.122C596.358 352.37 596.983 348.931 598.234 345.804C599.44 342.633 601.16 339.886 603.393 337.563C605.626 335.241 608.262 333.454 611.299 332.203C614.292 330.908 617.575 330.26 621.148 330.26C624.677 330.26 627.96 330.908 630.997 332.203C633.99 333.454 636.625 335.241 638.903 337.563C641.136 339.886 642.878 342.611 644.129 345.737C645.335 348.864 645.938 352.281 645.938 355.988ZM634.146 356.122C634.146 353.621 633.61 351.455 632.538 349.623C631.466 347.792 629.947 346.385 627.982 345.402C626.017 344.42 623.716 343.928 621.081 343.928C619.116 343.928 617.351 344.219 615.788 344.799C614.18 345.335 612.818 346.139 611.701 347.211C610.54 348.283 609.669 349.579 609.088 351.097C608.463 352.571 608.15 354.246 608.15 356.122C608.15 358.624 608.686 360.79 609.758 362.621C610.785 364.453 612.282 365.86 614.247 366.842C616.168 367.825 618.446 368.316 621.081 368.316C623.091 368.316 624.9 368.048 626.508 367.512C628.116 366.932 629.501 366.105 630.662 365.033C631.779 363.961 632.65 362.688 633.275 361.214C633.856 359.696 634.146 357.998 634.146 356.122ZM645.804 304.709C645.804 308.908 644.955 312.571 643.258 315.697C641.516 318.824 639.126 321.258 636.089 323C633.052 324.742 629.568 325.613 625.637 325.613L597.296 325.613L597.296 312.213L626.843 312.213C628.362 312.213 629.657 311.878 630.729 311.208C631.801 310.538 632.627 309.645 633.208 308.528C633.744 307.367 634.012 306.094 634.012 304.709C634.012 303.28 633.744 302.029 633.208 300.957C632.627 299.841 631.823 298.97 630.796 298.344C629.724 297.719 628.429 297.406 626.91 297.406L597.296 297.406L597.296 283.939L625.704 283.939C629.635 283.939 633.119 284.81 636.156 286.552C639.149 288.25 641.516 290.662 643.258 293.788C644.955 296.87 645.804 300.511 645.804 304.709ZM625.972 266.059L616.726 266.059L616.726 257.952C616.726 256.121 616.279 254.736 615.386 253.798C614.493 252.816 613.309 252.324 611.835 252.324C610.361 252.324 609.177 252.816 608.284 253.798C607.391 254.736 606.944 256.121 606.944 257.952L606.944 266.059L597.296 266.059L597.296 255.808C597.296 252.503 597.899 249.6 599.105 247.098C600.311 244.597 601.986 242.632 604.13 241.202C606.274 239.773 608.775 239.058 611.634 239.058C614.493 239.058 616.994 239.795 619.138 241.269C621.282 242.699 622.957 244.709 624.163 247.299C625.369 249.89 625.972 252.95 625.972 256.478L625.972 266.059ZM645 276.913L597.296 276.913L597.296 263.513L645 263.513L645 276.913ZM645 251.185L624.632 264.183L622.019 252.123L645 235.976L645 251.185ZM645.804 218.189C645.804 222.253 645.223 225.804 644.062 228.842C642.856 231.834 640.958 234.604 638.367 237.15L629.992 228.775C631.645 227.033 632.918 225.201 633.811 223.281C634.66 221.36 635.084 219.305 635.084 217.117C635.084 215.285 634.816 213.901 634.28 212.963C633.699 212.025 632.918 211.556 631.935 211.556C630.952 211.556 630.148 211.958 629.523 212.762C628.853 213.566 628.272 214.638 627.781 215.978C627.245 217.273 626.709 218.725 626.173 220.333C625.637 221.896 624.989 223.459 624.23 225.023C623.471 226.586 622.555 228.038 621.483 229.378C620.366 230.673 619.004 231.723 617.396 232.527C615.743 233.331 613.733 233.733 611.366 233.733C608.284 233.733 605.626 232.996 603.393 231.522C601.16 230.048 599.462 227.971 598.301 225.291C597.095 222.611 596.492 219.462 596.492 215.844C596.492 212.27 597.073 208.965 598.234 205.928C599.351 202.846 600.959 200.3 603.058 198.29L611.433 206.732C610.004 208.206 608.954 209.68 608.284 211.154C607.569 212.628 607.212 214.236 607.212 215.978C607.212 217.362 607.435 218.479 607.882 219.328C608.329 220.132 608.999 220.534 609.892 220.534C610.83 220.534 611.612 220.132 612.237 219.328C612.818 218.524 613.354 217.474 613.845 216.179C614.336 214.839 614.85 213.387 615.386 211.824C615.922 210.216 616.57 208.63 617.329 207.067C618.044 205.503 618.982 204.074 620.143 202.779C621.26 201.439 622.667 200.367 624.364 199.563C626.061 198.759 628.116 198.357 630.528 198.357C635.397 198.357 639.171 200.099 641.851 203.583C644.486 207.022 645.804 211.891 645.804 218.189Z" fill="white"/>
<path d="M164.058 536V199.224H257.712V536H164.058ZM101.149 276.796V199.224H252.982V276.796H101.149ZM294.307 485.389L428.639 350.111C433.999 344.75 438.256 339.863 441.41 335.448C444.878 330.718 447.243 326.303 448.505 322.204C450.081 318.105 450.87 313.848 450.87 309.433C450.87 298.396 447.243 289.725 439.991 283.418C433.053 276.796 423.593 273.485 411.611 273.485C400.889 273.485 390.956 276.796 381.812 283.418C372.667 289.725 362.892 300.604 352.486 316.055L290.996 260.714C304.87 238.641 322.687 221.928 344.445 210.576C366.518 199.224 391.587 193.548 419.652 193.548C445.194 193.548 467.109 198.12 485.399 207.265C504.003 216.094 518.193 228.865 527.969 245.578C538.059 262.291 543.105 282.157 543.105 305.176C543.105 318.105 541.37 330.245 537.902 341.597C534.433 352.949 528.915 364.143 521.347 375.18C513.779 385.901 504.003 396.938 492.021 408.29L407.354 488.7L294.307 485.389ZM294.307 536V485.389L372.825 458.428H550.2V536H294.307Z" fill="white"/>
<path d="M101.36 187V158.52H109.36V187H101.36ZM107.88 187V180.2H121.2V187H107.88ZM124.251 187V158.52H132.251V187H124.251ZM130.731 187V180.36H146.011V187H130.731ZM130.731 175.72V169.24H144.531V175.72H130.731ZM130.731 165.16V158.52H145.771V165.16H130.731ZM158.294 187.48C155.868 187.48 153.748 187.133 151.934 186.44C150.148 185.72 148.494 184.587 146.974 183.04L151.974 178.04C153.014 179.027 154.108 179.787 155.254 180.32C156.401 180.827 157.628 181.08 158.934 181.08C160.028 181.08 160.854 180.92 161.414 180.6C161.974 180.253 162.254 179.787 162.254 179.2C162.254 178.613 162.014 178.133 161.534 177.76C161.054 177.36 160.414 177.013 159.614 176.72C158.841 176.4 157.974 176.08 157.014 175.76C156.081 175.44 155.148 175.053 154.214 174.6C153.281 174.147 152.414 173.6 151.614 172.96C150.841 172.293 150.214 171.48 149.734 170.52C149.254 169.533 149.014 168.333 149.014 166.92C149.014 165.08 149.454 163.493 150.334 162.16C151.214 160.827 152.454 159.813 154.054 159.12C155.654 158.4 157.534 158.04 159.694 158.04C161.828 158.04 163.801 158.387 165.614 159.08C167.454 159.747 168.974 160.707 170.174 161.96L165.134 166.96C164.254 166.107 163.374 165.48 162.494 165.08C161.614 164.653 160.654 164.44 159.614 164.44C158.788 164.44 158.121 164.573 157.614 164.84C157.134 165.107 156.894 165.507 156.894 166.04C156.894 166.6 157.134 167.067 157.614 167.44C158.094 167.787 158.721 168.107 159.494 168.4C160.294 168.693 161.161 169 162.094 169.32C163.054 169.64 164.001 170.027 164.934 170.48C165.868 170.907 166.721 171.467 167.494 172.16C168.294 172.827 168.934 173.667 169.414 174.68C169.894 175.693 170.134 176.92 170.134 178.36C170.134 181.267 169.094 183.52 167.014 185.12C164.961 186.693 162.054 187.48 158.294 187.48Z" fill="white"/>
<rect x="100" y="51" width="545" height="94" fill="black"/>
<path d="M313.022 113.48C310.835 113.48 308.795 113.12 306.902 112.4C305.035 111.653 303.395 110.613 301.982 109.28C300.569 107.947 299.462 106.387 298.662 104.6C297.889 102.787 297.502 100.827 297.502 98.72C297.502 96.5867 297.889 94.6267 298.662 92.84C299.462 91.0533 300.555 89.5067 301.942 88.2C303.355 86.8933 304.995 85.88 306.862 85.16C308.729 84.4133 310.755 84.04 312.942 84.04C315.155 84.04 317.182 84.3867 319.022 85.08C320.862 85.7733 322.462 86.7333 323.822 87.96L318.502 93.32C317.862 92.6267 317.075 92.08 316.142 91.68C315.235 91.28 314.169 91.08 312.942 91.08C311.875 91.08 310.889 91.2533 309.982 91.6C309.102 91.9467 308.342 92.4533 307.702 93.12C307.062 93.7867 306.555 94.6 306.182 95.56C305.835 96.4933 305.662 97.5467 305.662 98.72C305.662 99.92 305.835 101 306.182 101.96C306.555 102.893 307.062 103.693 307.702 104.36C308.342 105.027 309.102 105.547 309.982 105.92C310.889 106.267 311.875 106.44 312.942 106.44C314.142 106.44 315.209 106.253 316.142 105.88C317.102 105.507 317.929 104.96 318.622 104.24L323.982 109.6C322.569 110.827 320.982 111.787 319.222 112.48C317.462 113.147 315.395 113.48 313.022 113.48ZM326.755 113V84.52H334.755V113H326.755ZM333.275 113V106.2H346.595V113H333.275ZM349.645 113V84.52H357.645V113H349.645ZM362.38 113V84.52H368.18L378.78 100.04H376.26L386.82 84.52H392.62V113H384.7V97.64L385.86 97.96L380.06 106.28H374.94L369.18 97.96L370.3 97.64V113H362.38ZM395.22 113L406.06 84.52H414.22L424.94 113H416.62L408.66 88.8H411.54L403.38 113H395.22ZM402.26 108.2V101.96H418.18V108.2H402.26ZM431.211 113V84.52H439.211V113H431.211ZM422.691 91.32V84.52H447.771V91.32H422.691Z" fill="white"/>
</svg>
